<?xml version="1.0" encoding="UTF-8" standalone="no"?>
<!DOCTYPE svg PUBLIC "-//W3C//DTD SVG 1.1//EN" "http://www.w3.org/Graphics/SVG/1.1/DTD/svg11.dtd">
<svg width="100%" height="100%" viewBox="0 0 300 300" version="1.1" xmlns="http://www.w3.org/2000/svg" xmlns:xlink="http://www.w3.org/1999/xlink" xml:space="preserve" xmlns:serif="http://www.serif.com/" style="fill-rule:evenodd;clip-rule:evenodd;stroke-linejoin:round;stroke-miterlimit:2;">
    <g transform="matrix(2.60593,0,0,2.60593,-273.283,-113.085)">
        <circle cx="162.699" cy="61.699" r="13.699" style="fill:rgb(236,30,39);fill-opacity:0.1;"/>
    </g>
    <g transform="matrix(2.60593,0,0,2.60593,-273.283,89.1524)">
        <circle cx="162.699" cy="61.699" r="13.699" style="fill:rgb(236,30,39);fill-opacity:0.5;"/>
    </g>
    <g transform="matrix(1.84267,-1.84267,1.84267,1.84267,-334.295,263.426)">
        <circle cx="162.699" cy="61.699" r="13.699" style="fill:rgb(236,30,39);fill-opacity:0.15;"/>
    </g>
    <g transform="matrix(1.84267,-1.84267,1.84267,1.84267,-191.292,406.429)">
        <circle cx="162.699" cy="61.699" r="13.699" style="fill:rgb(236,30,39);fill-opacity:0.65;"/>
    </g>
    <g transform="matrix(1.59567e-16,-2.60593,2.60593,1.59567e-16,-111.203,572.8)">
        <circle cx="162.699" cy="61.699" r="13.699" style="fill:rgb(236,30,39);fill-opacity:0.25;"/>
    </g>
    <g transform="matrix(1.59567e-16,-2.60593,2.60593,1.59567e-16,91.0339,572.8)">
        <circle cx="162.699" cy="61.699" r="13.699" style="fill:rgb(236,30,39);fill-opacity:0.9;"/>
    </g>
    <g transform="matrix(-1.84267,-1.84267,1.84267,-1.84267,265.307,633.812)">
        <circle cx="162.699" cy="61.699" r="13.699" style="fill:rgb(236,30,39);fill-opacity:0.5;"/>
    </g>
    <g transform="matrix(-1.84267,-1.84267,1.84267,-1.84267,408.31,490.809)">
        <circle cx="162.699" cy="61.699" r="13.699" style="fill:rgb(236,30,39);"/>
    </g>
</svg>
