<?xml version="1.0" encoding="UTF-8" standalone="no"?>
<!DOCTYPE svg PUBLIC "-//W3C//DTD SVG 1.1//EN" "http://www.w3.org/Graphics/SVG/1.1/DTD/svg11.dtd">
<svg width="100%" height="100%" viewBox="0 0 2700 1209" version="1.1" xmlns="http://www.w3.org/2000/svg" xmlns:xlink="http://www.w3.org/1999/xlink" xml:space="preserve" xmlns:serif="http://www.serif.com/" style="fill-rule:evenodd;clip-rule:evenodd;stroke-linejoin:round;stroke-miterlimit:2;">
    <g transform="matrix(4.16667,0,0,4.16667,0,0)">
        <path d="M152.64,52.724L152.115,52.147L151.344,52.08C149.183,51.899 146.949,51.807 144.699,51.807C137.487,51.807 128.393,52.702 117.673,54.478C102.276,57.016 93.514,58.388 91.639,58.556L89.98,58.708L89.851,60.37C89.759,61.56 89.713,62.933 89.713,64.485C89.713,68.436 90.117,73.465 90.918,79.419L91.074,80.581L92.16,81.001C93.546,81.536 95.162,81.793 97.104,81.793C98.816,81.793 101.639,81.481 105.762,80.837C108.233,80.412 110.322,80.189 111.989,80.155C112.032,81.742 112.058,83.35 112.058,84.982C112.058,90.512 111.614,98.932 110.742,110.006C109.859,121.128 109.41,129.655 109.41,135.348C109.41,140.586 109.684,145.645 110.214,150.378L110.307,151.174L110.921,151.679C112.78,153.207 115.111,153.981 117.861,153.981C118.702,153.981 120.551,153.762 127.452,152.071L128.89,151.721L130.537,113.483C131.122,99.483 132.033,87.76 133.255,78.607C139.702,76.929 145.974,75.948 151.916,75.712L153.702,75.641L153.805,73.852C154.247,66.135 154.428,59.991 154.34,55.632C154.34,54.748 153.837,54.049 152.64,52.724Z" style="fill:rgb(236,30,39);fill-rule:nonzero;"/>
        <path d="M169.904,152.255L169.907,152.255L169.907,152.277L169.904,152.255ZM198.31,114.471C188.888,117.358 186.355,117.872 185.744,117.914L184.693,117.952L184.84,116.95C186.948,105.989 188.584,98.343 189.712,94.177L190.449,91.197L191.492,93.95C194.665,103.173 196.954,110.061 198.31,114.471ZM204.617,68.866C201.293,62.477 198.869,58.215 197.219,55.833L196.744,55.143L195.928,55.009C194.766,54.81 192.624,54.823 189.359,55.122C184.524,55.509 183.098,56.233 182.361,57.26L182.092,57.794C174.44,81.275 169.45,97.001 167.267,104.515C161.881,122.795 158.432,138.479 157.018,151.131L156.804,153.042L158.716,153.299C162.722,153.837 166.35,154.153 169.503,154.246L169.907,154.246C174.795,154.246 177.095,151.885 178.302,149.579C179.958,144.53 181.124,140.41 181.709,137.561C188.185,135.394 195.823,133.807 204.411,132.856C207.365,141.592 209.932,147.413 212.246,150.644L212.815,151.435L213.786,151.468C219.729,151.637 224.407,150.657 227.74,148.51L228.885,147.77L228.594,146.436C222.076,116.302 214.027,90.247 204.617,68.866Z" style="fill:rgb(236,30,39);fill-rule:nonzero;"/>
        <path d="M272.27,116.836C268.904,119.016 268.197,121.781 268.197,123.716C268.197,124.68 268.558,126.528 271.074,132.68C267.528,134.33 265.474,134.704 264.35,134.704C262.352,134.704 260.609,134.04 259.006,132.655C256.094,130.206 254.684,126.415 254.684,121.07C254.684,111.892 257.647,102.592 263.488,93.444C272.939,78.775 279.196,75.69 282.777,75.69L283.24,75.708C287.326,76.011 290.314,77.968 292.367,81.691C294.135,84.915 295.031,89.001 295.031,93.836C295.031,103 292.451,111.409 287.351,118.861C285.55,117.19 283.922,115.865 282.479,114.926L281.712,114.627C278.51,114.123 275.295,114.884 272.27,116.836ZM304.823,58.127C298.914,54.899 292.544,53.263 285.9,53.263C280.534,53.263 275.408,54.344 270.675,56.477C257.988,62.187 248.07,71.597 241.198,84.439C234.62,96.604 231.646,109.986 232.369,124.217C233.202,140.056 238.648,150.072 248.549,153.972C258.32,157.844 269.724,157.835 281.077,154.001C285.1,160.369 289.328,164.147 294.244,165.599C295.039,165.7 295.78,165.747 296.474,165.747C303.182,165.747 308.08,161.614 311.022,153.471L311.286,152.744L310.979,152.024C309.262,148.026 306.936,143.797 304.04,139.438C309.738,133.623 314.417,126.705 317.969,118.844C321.946,110.075 323.961,101.397 323.961,93.041C323.961,85.618 322.37,78.855 319.252,72.976C315.995,66.563 311.143,61.573 304.823,58.127Z" style="fill:rgb(236,30,39);fill-rule:nonzero;"/>
        <path d="M387.699,55.244C380.588,55.244 376.889,56.469 375.711,59.217L375.547,59.919C375.026,73.684 374.588,83 374.23,87.591C371.89,115.823 366.681,125.265 362.919,128.088C362.704,128.211 362.287,128.354 361.522,128.354C357.697,128.354 356.497,126.616 355.912,125.29C353.661,120.274 352.517,113.028 352.517,103.754C352.517,97.085 353.047,89.11 354.09,80.063L357.057,56.052L356.889,55.601C355.996,53.22 352.949,52.202 346.714,52.202C339.649,52.202 335.63,53.384 334.065,55.913L333.791,56.684C330.622,79.747 329.01,95.048 329.01,102.167C329.01,120.725 333.526,135.394 342.443,145.758C346.92,150.963 352.887,153.606 360.179,153.606C360.563,153.606 360.941,153.598 361.349,153.581C367.408,153.29 372.618,150.858 376.847,146.338C386.24,136.227 392.417,122.315 395.198,104.987C396.705,95.582 397.471,80.042 397.471,58.804L397.471,58.143L397.075,57.613C395.822,55.955 393.019,55.244 387.699,55.244Z" style="fill:rgb(236,30,39);fill-rule:nonzero;"/>
        <path d="M467.08,55.472L465.393,55.505C446.658,55.951 430.79,57.571 418.212,60.315L417.186,60.538L416.798,61.518C412.014,73.751 408.504,86.922 406.371,100.678C404.604,112.342 403.485,126.486 403.046,142.753C403.046,144.731 403.72,146.52 405.037,148.064C406.346,149.6 407.945,150.555 409.805,150.905L410.073,150.956L432.549,148.944C441.151,148.237 448.783,147.252 455.222,146.015C457.486,145.594 460.36,143.835 461.185,137.792C461.63,133.34 461.896,130.268 461.984,128.581L462.073,126.923L460.456,126.557C455.996,125.53 450.416,125.458 444.036,126.254C435.006,127.386 429.338,127.988 427.424,127.853C426.818,121.802 426.965,116.955 427.857,113.457C432.697,112.767 437.535,112.165 442.244,111.661C448.88,110.954 454.115,110.188 457.797,109.379L459.026,109.111L459.299,107.881C460.031,104.586 460.398,101.553 460.398,98.864C460.398,97.236 460.25,95.679 459.96,94.24L459.716,93.011L458.495,92.717C455.071,91.879 450.526,91.598 444.992,91.866C442.955,91.955 439.938,92.136 435.97,92.401C433.348,92.553 431.455,92.641 430.277,92.657C430.071,91.871 429.978,90.175 430.858,86.653C432.229,81.25 432.62,79.47 432.721,78.83C440.708,77.98 449.928,77.239 460.132,76.634L460.936,76.583L461.475,75.994C463.414,73.864 465.022,70.864 466.255,67.077C467.513,63.202 467.884,59.948 467.379,57.13L467.08,55.472Z" style="fill:rgb(236,30,39);fill-rule:nonzero;"/>
        <path d="M495.416,91.202C496.482,83.628 497.184,78.553 497.525,75.981C503.559,73.149 506.69,72.539 508.272,72.539C510.877,72.539 512.073,73.642 512.392,75.96C511.714,84.519 505.613,93.487 494.255,102.639C494.381,99.5 494.769,95.671 495.416,91.202ZM510.389,117.779C519.469,108.105 524.932,101.936 527.066,98.957C533.386,90.154 536.352,81.409 535.89,72.985C535.599,66.909 532.918,62.044 527.928,58.518C516.713,50.54 498.859,53.06 476.506,65.541L475.824,65.92L475.588,66.661C470.354,83.101 467.829,104.036 468.098,128.905C468.267,139.799 469.129,149.17 470.644,156.758L470.968,158.373L472.61,158.344C486.071,158.1 488.465,157.999 489.05,157.936L490.838,157.743L490.809,155.95C490.654,146.331 491.162,137.742 492.316,130.361C504.898,136.547 515.577,140.995 524.099,143.582C527.309,144.559 528.462,144.69 529.111,144.69C529.771,144.69 530.31,144.53 530.743,144.202L531.189,143.865L531.395,143.342C534.042,136.644 536.02,131.569 537.35,128.123L538.17,125.998L535.945,125.497C527.347,123.54 518.763,120.952 510.389,117.779Z" style="fill:rgb(236,30,39);fill-rule:nonzero;"/>
        <path d="M558.777,54.583C554.973,54.583 551.867,55.812 549.549,58.231L549.107,58.699L549.027,59.335C546.615,77.282 545.097,89.01 544.394,95.19C542.715,109.111 541.865,121.777 541.865,132.839C541.865,137.965 542.046,142.905 542.395,147.534L542.643,148.346C543.333,149.575 544.419,150.442 545.74,150.846C549.01,151.902 551.219,152.394 552.697,152.394C555.524,152.394 558.605,151.624 561.862,150.088L562.875,149.617L562.981,148.506C566.318,114.959 568.594,84.364 569.735,57.562L569.815,55.749L563.781,54.996C561.571,54.718 559.93,54.583 558.777,54.583Z" style="fill:rgb(236,30,39);fill-rule:nonzero;"/>
        <path d="M587.551,152.255L587.556,152.255L587.556,152.277L587.551,152.255ZM615.951,114.471C606.53,117.358 604.005,117.872 603.395,117.914L602.334,117.952L602.49,116.95C604.598,105.989 606.231,98.343 607.363,94.177L608.095,91.197L609.134,93.95C612.316,103.173 614.601,110.061 615.951,114.471ZM646.24,146.436C639.723,116.311 631.677,90.251 622.268,68.866C618.931,62.47 616.511,58.207 614.865,55.833L614.395,55.143L613.57,55.009C612.408,54.81 610.275,54.823 607.005,55.122C602.17,55.509 600.743,56.233 600.007,57.26L599.738,57.794C591.974,81.645 587.122,96.929 584.921,104.515C579.531,122.787 576.08,138.47 574.666,151.131L574.451,153.042L576.363,153.299C580.372,153.837 584,154.153 587.156,154.246L587.556,154.246C592.441,154.246 594.742,151.885 595.954,149.579C597.617,144.496 598.782,140.376 599.359,137.561C605.831,135.394 613.469,133.807 622.066,132.856C625.016,141.588 627.573,147.413 629.893,150.644L630.456,151.435L631.428,151.468C637.374,151.637 642.054,150.657 645.386,148.51L646.527,147.77L646.24,146.436Z" style="fill:rgb(236,30,39);fill-rule:nonzero;"/>
        <path d="M481.606,38.534C477.39,38.782 470.168,38.378 471.364,37.474L470.514,36.918C474.095,37.011 489.059,37.023 481.606,38.534Z" style="fill:rgb(32,119,59);fill-rule:nonzero;"/>
        <path d="M482.615,42.578C478.972,42.259 481.762,42.018 482.389,41.682L487.401,41.758C488.924,42.199 484.716,42.452 482.615,42.578Z" style="fill:rgb(32,119,59);fill-rule:nonzero;"/>
        <path d="M480.495,51.142L481.972,51.356C480.495,51.142 478.328,51.04 476.914,51.049C476.792,50.599 479.528,50.132 482.422,50.338C481.799,50.679 478.959,50.695 480.495,51.142Z" style="fill:rgb(32,119,59);fill-rule:nonzero;"/>
        <path d="M407.671,41.808C406.581,43.167 411.353,45.157 417.379,46.471L415.107,48.734C410.554,47.636 401.451,48.259 394.336,48.306C391.609,48.768 400.938,49.05 393.941,49.542C393.149,49.21 393.721,48.645 392.24,48.427C385.983,49.033 389.278,50.809 375.631,50.329L371.082,49.235C347.602,49.272 323.145,51.112 300.796,50.014C296.815,51.167 285.319,50.788 278.384,51.508L278.224,50.826C274.239,51.978 267.468,50.557 262.52,50.704L258.088,50.056C256.393,48.94 270.776,49.53 266.799,47.863C257.302,46.917 250.809,49.429 242.688,48.242C234.784,47.952 235.694,48.734 230.795,49.104C229.541,49.786 232.39,49.766 231.877,50.557C214.182,51.007 213.282,47.417 197.703,47.733C197.131,48.301 184.68,49.727 196.277,50.557L201.789,49.846L205.543,50.611C201.281,50.637 193.432,50.573 194.341,51.356C188.719,48.806 165.041,53.788 176.882,49.892C184.162,50.522 186.275,50.392 190.996,49.349C174.553,49.117 160.063,48.082 146.522,48.057L142.542,49.201C142.254,48.082 135.658,47.337 129.184,47.043C126.397,47.282 122.811,47.194 123.667,47.75C122.413,48.432 147.264,48.166 135.658,50.148C120.589,49.685 104.664,48.654 95.007,47.03C102.062,46.761 107.119,47.063 114.572,45.558C139.823,44.047 167.17,45.225 191.631,43.382C192.54,44.165 199.025,44.464 197.085,45.263C199.358,45.813 205.623,45.212 207.315,46.327C226.259,45.195 248.49,45.844 265.609,45.962C260.836,43.967 275.964,44.657 280.737,43.841C285.235,44.716 292.965,44.324 298.65,44.291C299.277,43.95 302.803,43.815 301.948,43.256C297.74,43.508 296.209,43.07 291.887,42.872C293.655,41.399 301.154,42.923 307.583,42.999L304.225,43.807C314.913,43.852 327.647,46.356 337.267,44.947L329.078,43.538C341.025,42.897 355.74,44.833 364.564,43.096C356.603,42.578 343.347,43.672 343.578,41.758C344.033,40.747 353.303,40.798 357.684,41.224C376.666,43.125 391.297,38.989 407.671,41.808Z" style="fill:rgb(32,119,59);fill-rule:nonzero;"/>
        <path d="M381.914,38.483C366.277,38.581 374.062,41.231 359.047,40.987C360.928,39.965 353.598,39.11 348.59,39.03C343.755,39.624 337.952,39.208 333.694,39.237C330.786,39.03 331.186,37.794 336.884,37.751C350.93,39.801 368.613,36.544 381.914,38.483Z" style="fill:rgb(32,119,59);fill-rule:nonzero;"/>
        <path d="M395.439,44.135C387.641,44.299 390.608,41.913 382.936,42.527C386.176,41.265 387.195,42.498 394.302,42.456L390.207,43.159L395.439,44.135Z" style="fill:rgb(32,119,59);fill-rule:nonzero;"/>
        <path d="M331.982,40.933C327.029,41.076 315.494,40.478 315.154,39.132C314.413,39.018 315.667,38.337 312.881,38.576C317.258,38.997 330.109,39.144 331.982,40.933Z" style="fill:rgb(32,119,59);fill-rule:nonzero;"/>
        <path d="M353.977,46.307C351.191,46.551 348.342,46.571 344.083,46.593C346.869,46.352 350.278,45.767 353.977,46.307Z" style="fill:rgb(32,119,59);fill-rule:nonzero;"/>
        <path d="M325.492,43.449C326.456,44.455 321.281,43.697 319.863,43.71L316.9,43.276C319.694,43.032 323.22,42.897 325.492,43.449Z" style="fill:rgb(32,119,59);fill-rule:nonzero;"/>
        <path d="M282.74,40.453C275.518,40.049 290.246,39.17 281.657,38.997L286.607,38.854L288.424,40.415L282.74,40.453Z" style="fill:rgb(32,119,59);fill-rule:nonzero;"/>
        <path d="M271.714,39.06C269.66,39.413 267.552,39.536 263.912,39.22L265.911,38.647C267.266,38.412 268.869,39.077 271.714,39.06Z" style="fill:rgb(32,119,59);fill-rule:nonzero;"/>
        <path d="M281.14,42.603C277.664,42.961 278.182,42.17 275.964,41.846C277.278,41.388 284.666,42.465 281.14,42.603Z" style="fill:rgb(32,119,59);fill-rule:nonzero;"/>
        <path d="M246.487,52.038C249.727,50.784 256.321,51.528 262.637,51.154C256.321,51.528 253.654,52.223 246.487,52.038Z" style="fill:rgb(32,119,59);fill-rule:nonzero;"/>
        <path d="M533.297,37.423C536.251,37.856 539.723,37.499 541.768,37.149L540.228,36.704L533.297,37.423Z" style="fill:rgb(32,119,59);fill-rule:nonzero;"/>
        <path d="M490.417,36.796C487.228,38.277 492.744,37.562 498.72,38.652C506.618,38.938 514.866,37.765 522.723,37.827L527.498,37.011C518.115,36.506 501.623,36.048 490.417,36.796Z" style="fill:rgb(32,119,59);fill-rule:nonzero;"/>
        <path d="M484.434,44.14C490.283,44.778 497.858,43.723 502.115,43.693C494.929,43.588 485.684,43.453 480.68,43.378C480.049,43.719 482.952,43.925 484.434,44.14Z" style="fill:rgb(32,119,59);fill-rule:nonzero;"/>
        <path d="M609.269,36.606C599.322,36.675 585.506,35.521 574.582,37.39C579.64,37.696 579.754,38.147 587.656,38.429C581.736,40.386 575.487,38.168 568.375,38.214C574.178,38.631 566.562,39.464 561.609,39.607C552.229,39.106 537.328,39.309 524.528,39.392C519.02,40.1 500.938,38.976 503.551,40.87C495.749,41.034 494.672,39.573 488.877,39.161C471.641,41.404 457.957,35.079 439.404,37.789C440.548,36.657 431.341,36.821 427.752,36.733C419.908,36.67 401.367,36.56 405.453,38.673C410.802,40.103 421.604,37.789 429.792,39.194C443.894,41.472 415.069,40.074 414.833,41.989C416.882,41.636 418.014,43.318 424.272,42.717C410.962,43.593 429.776,44.821 422.95,45.986C438.188,47.131 436.774,47.136 444.499,49.563C453.656,49.172 451.102,47.497 453.724,46.58C463.44,45.62 471.107,47.825 479.535,47.32C473.16,50.287 493.637,49.593 503.58,49.534C516.435,49.681 507.91,46.921 521.502,47.173C528.269,48.587 507.738,49.054 516.663,50.573L522.912,49.972C526.901,48.823 530.086,47.342 534.867,46.525C537.711,46.504 541.974,46.479 542.088,46.929C536.508,47.417 538.212,48.528 544.074,49.168C546.805,48.696 547.487,48.579 548.795,48.124C537.321,44.934 560.856,47.939 568.922,46.088C592.479,43.466 581.26,49.829 604.405,48.448C597.31,45.684 619.713,47.005 627.275,45.944C633.7,46.017 636.031,46.79 640.522,47.665C642.289,47.358 647.25,47.207 647.999,46.664C644.414,42.957 629.518,39.464 610.229,36.392C609.706,36.46 609.252,36.531 609.269,36.606Z" style="fill:rgb(32,119,59);fill-rule:nonzero;"/>
        <path d="M479.772,242.584C475.626,242.832 468.524,242.429 469.705,241.524L468.868,240.965C472.386,241.057 487.093,241.075 479.772,242.584Z" style="fill:rgb(32,119,59);fill-rule:nonzero;"/>
        <path d="M480.764,246.628C477.179,246.309 479.923,246.069 480.541,245.728L485.469,245.808C486.963,246.25 482.83,246.498 480.764,246.628Z" style="fill:rgb(32,119,59);fill-rule:nonzero;"/>
        <path d="M478.673,255.192L480.133,255.407C478.673,255.192 476.552,255.086 475.159,255.095C475.041,254.645 477.726,254.182 480.575,254.388C479.961,254.729 477.171,254.747 478.673,255.192Z" style="fill:rgb(32,119,59);fill-rule:nonzero;"/>
        <path d="M407.065,245.859C406,247.213 410.688,249.208 416.617,250.521L414.379,252.786C409.909,251.687 400.95,252.305 393.961,252.352C391.277,252.819 400.45,253.096 393.566,253.588C392.787,253.26 393.351,252.697 391.9,252.478C385.743,253.08 388.979,254.856 375.564,254.379L371.086,253.286C347.992,253.324 323.948,255.163 301.974,254.064C298.057,255.209 286.758,254.834 279.937,255.558L279.777,254.876C275.859,256.03 269.201,254.607 264.342,254.754L259.978,254.106C258.307,252.991 272.45,253.577 268.541,251.915C259.203,250.963 252.821,253.475 244.833,252.292C237.066,252.002 237.957,252.786 233.139,253.151C231.91,253.837 234.704,253.816 234.203,254.607C216.804,255.057 215.916,251.463 200.594,251.784C200.039,252.352 187.798,253.778 199.194,254.607L204.617,253.896L208.308,254.662C204.113,254.687 196.399,254.623 197.291,255.407C191.762,252.852 168.481,257.835 180.122,253.938C187.284,254.569 189.359,254.443 194,253.399C177.835,253.168 163.585,252.133 150.271,252.103L146.358,253.252C146.075,252.133 139.586,251.383 133.222,251.093C130.481,251.333 126.954,251.237 127.8,251.8C126.563,252.478 150.998,252.217 139.586,254.199C124.77,253.728 109.112,252.706 99.614,251.081C106.551,250.811 111.524,251.115 118.854,249.608C143.683,248.097 170.573,249.272 194.627,247.432C195.52,248.215 201.903,248.514 199.989,249.313C202.227,249.865 208.383,249.254 210.054,250.373C228.674,249.247 250.539,249.89 267.375,250.008C262.68,248.017 277.555,248.707 282.251,247.891C286.665,248.758 294.274,248.375 299.865,248.337C300.476,247.997 303.948,247.866 303.106,247.306C298.969,247.559 297.463,247.122 293.217,246.919C294.95,245.446 302.327,246.974 308.648,247.049L305.345,247.853C315.861,247.9 328.379,250.408 337.839,248.998L329.781,247.588C341.53,246.949 356.005,248.884 364.678,247.142C356.847,246.628 343.815,247.723 344.046,245.808C344.496,244.793 353.607,244.849 357.915,245.274C376.582,247.176 390.965,243.036 407.065,245.859Z" style="fill:rgb(32,119,59);fill-rule:nonzero;"/>
        <path d="M381.741,242.53C366.365,242.631 374.016,245.282 359.253,245.038C361.101,244.016 353.901,243.162 348.969,243.077C344.214,243.67 338.512,243.258 334.325,243.288C331.472,243.077 331.864,241.835 337.456,241.802C351.271,243.852 368.658,240.59 381.741,242.53Z" style="fill:rgb(32,119,59);fill-rule:nonzero;"/>
        <path d="M395.043,248.186C387.371,248.346 390.296,245.963 382.742,246.574C385.933,245.316 386.934,246.549 393.923,246.502L389.892,247.206L395.043,248.186Z" style="fill:rgb(32,119,59);fill-rule:nonzero;"/>
        <path d="M332.638,244.983C327.774,245.126 316.429,244.525 316.096,243.178C315.368,243.065 316.601,242.387 313.854,242.627C318.162,243.047 330.795,243.191 332.638,244.983Z" style="fill:rgb(32,119,59);fill-rule:nonzero;"/>
        <path d="M354.267,250.357C351.528,250.601 348.73,250.618 344.538,250.643C347.278,250.399 350.631,249.819 354.267,250.357Z" style="fill:rgb(32,119,59);fill-rule:nonzero;"/>
        <path d="M326.258,247.496C327.209,248.505 322.117,247.748 320.721,247.76L317.809,247.328C320.561,247.083 324.029,246.949 326.258,247.496Z" style="fill:rgb(32,119,59);fill-rule:nonzero;"/>
        <path d="M284.22,244.503C277.114,244.095 291.606,243.22 283.156,243.047L288.02,242.905L289.809,244.465L284.22,244.503Z" style="fill:rgb(32,119,59);fill-rule:nonzero;"/>
        <path d="M273.376,243.107C271.357,243.46 269.286,243.586 265.705,243.271L267.674,242.694C269.008,242.458 270.578,243.127 273.376,243.107Z" style="fill:rgb(32,119,59);fill-rule:nonzero;"/>
        <path d="M282.647,246.65C279.226,247.012 279.735,246.216 277.555,245.897C278.847,245.434 286.11,246.515 282.647,246.65Z" style="fill:rgb(32,119,59);fill-rule:nonzero;"/>
        <path d="M248.571,256.088C251.751,254.831 258.243,255.575 264.451,255.201C258.243,255.575 255.615,256.269 248.571,256.088Z" style="fill:rgb(32,119,59);fill-rule:nonzero;"/>
        <path d="M530.6,241.469C533.508,241.903 536.92,241.545 538.932,241.196L537.412,240.754L530.6,241.469Z" style="fill:rgb(32,119,59);fill-rule:nonzero;"/>
        <path d="M488.436,240.838C485.305,242.32 490.725,241.609 496.599,242.699C504.367,242.989 512.481,241.815 520.202,241.877L524.898,241.057C515.674,240.552 499.456,240.094 488.436,240.838Z" style="fill:rgb(32,119,59);fill-rule:nonzero;"/>
        <path d="M482.549,248.19C488.305,248.83 495.753,247.769 499.941,247.744C492.871,247.634 483.781,247.499 478.863,247.424C478.24,247.765 481.097,247.975 482.549,248.19Z" style="fill:rgb(32,119,59);fill-rule:nonzero;"/>
        <path d="M605.309,240.658C595.526,240.721 581.942,239.568 571.199,241.44C576.173,241.748 576.282,242.194 584.055,242.48C578.239,244.432 572.087,242.219 565.097,242.265C570.808,242.677 563.313,243.515 558.441,243.658C549.221,243.157 534.564,243.359 521.982,243.439C516.562,244.15 498.779,243.027 501.346,244.92C493.679,245.081 492.622,243.624 486.925,243.211C469.975,245.455 456.514,239.13 438.276,241.832C439.396,240.704 430.344,240.872 426.818,240.784C419.104,240.716 400.871,240.612 404.89,242.723C410.15,244.155 420.771,241.832 428.821,243.241C442.686,245.518 414.345,244.125 414.114,246.036C416.125,245.686 417.24,247.37 423.392,246.768C410.301,247.639 428.808,248.872 422.096,250.033C437.081,251.178 435.68,251.186 443.283,253.614C452.284,253.218 449.777,251.547 452.352,250.626C461.912,249.671 469.449,251.872 477.735,251.367C471.469,254.333 491.604,253.643 501.379,253.581C514.021,253.723 505.642,250.967 519.007,251.224C525.656,252.637 505.47,253.1 514.24,254.623L520.391,254.022C524.313,252.87 527.444,251.388 532.149,250.576C534.939,250.555 539.134,250.53 539.243,250.98C533.76,251.463 535.435,252.579 541.204,253.218C543.885,252.748 544.558,252.629 545.837,252.17C534.556,248.981 557.699,251.986 565.636,250.134C588.797,247.516 577.768,253.879 600.529,252.498C593.548,249.735 615.573,251.055 623.012,249.995C629.328,250.067 631.626,250.841 636.036,251.716C637.774,251.409 642.656,251.249 643.396,250.715C639.865,247.007 625.217,243.515 606.256,240.443C605.739,240.51 605.292,240.582 605.309,240.658Z" style="fill:rgb(32,119,59);fill-rule:nonzero;"/>
        <path d="M164.657,6.326L159.621,15.167L155.64,24.273L152.114,33.661L164.163,33.854L176.091,33.257L173.086,24.067L168.679,15.398L164.657,6.326Z" style="fill:rgb(32,119,59);fill-rule:nonzero;"/>
        <path d="M210.551,4.903L206.835,15.18L203.043,24.383L197.829,33.236L210.058,33.098L222.24,32.892L218.087,23.865L214.207,14.965L210.551,4.903Z" style="fill:rgb(236,30,39);fill-rule:nonzero;"/>
        <path d="M121.307,4.903L117.587,15.18L113.806,24.383L108.586,33.236L120.815,33.098L133.001,32.892L128.841,23.865L124.959,14.965L121.307,4.903Z" style="fill:rgb(236,30,39);fill-rule:nonzero;"/>
        <path d="M256.469,5.346L253.131,14.775L248.507,23.587L244,32.407L255.955,31.844L267.834,32.024L263.617,23.428L259.717,14.549L256.469,5.346Z" style="fill:rgb(32,119,59);fill-rule:nonzero;"/>
        <path d="M302.382,5.829L299.125,14.225L293.911,22.767L289.851,31.86L301.856,31.044L313.147,30.896L309.199,22.981L306.83,13.417L302.382,5.829Z" style="fill:rgb(236,30,39);fill-rule:nonzero;"/>
        <path d="M348.275,4.5L343.662,13.009L340.746,22.606L335.47,31.523L347.766,31.296L359.493,30.707L356.299,21.875L351.292,13.467L348.275,4.5Z" style="fill:rgb(32,119,59);fill-rule:nonzero;"/>
        <path d="M394.167,3.124L389.989,12.612L385.625,21.542L382.035,30.35L393.662,30.03L406.064,30.716L401.018,21.79L397.096,12.903L394.167,3.124Z" style="fill:rgb(236,30,39);fill-rule:nonzero;"/>
        <path d="M440.073,2.968L436.626,12.364L432.154,21.239L427.082,30.51L439.555,29.003L452.188,30.333L447.391,21.004L444.828,11.536L440.073,2.968Z" style="fill:rgb(32,119,59);fill-rule:nonzero;"/>
        <path d="M485.987,3.166L481.362,11.237L476.763,20.053L473.047,29.866L485.473,29.571L497.453,29.159L494.457,19.909L489.635,11.418L485.987,3.166Z" style="fill:rgb(236,30,39);fill-rule:nonzero;"/>
        <path d="M531.892,2.534L527.953,10.959L523.779,19.981L519.284,28.986L531.37,28.296L543.569,28.763L539.887,19.522L536.113,10.571L531.892,2.534Z" style="fill:rgb(32,119,59);fill-rule:nonzero;"/>
        <path d="M577.788,1.95L574.027,10.45L569.25,19.19L564.525,28.977L577.263,27.067L588.688,27.476L586.158,18.773L581.698,10.126L577.788,1.95Z" style="fill:rgb(236,30,39);fill-rule:nonzero;"/>
        <path d="M623.677,0.019L619.473,9.65L615.539,18.777L611.116,27.77L623.164,26.566L634.42,26.726L630.557,18.828L628.281,9.259L623.677,0.019Z" style="fill:rgb(32,119,59);fill-rule:nonzero;"/>
        <path d="M571.696,283.899L576.576,275.34L580.427,266.524L583.84,257.439L572.175,257.249L560.633,257.827L563.536,266.722L567.812,275.117L571.696,283.899Z" style="fill:rgb(32,119,59);fill-rule:nonzero;"/>
        <path d="M527.28,285.275L530.882,275.323L534.534,266.419L539.597,257.848L527.755,257.982L515.96,258.18L519.991,266.92L523.749,275.534L527.28,285.275Z" style="fill:rgb(236,30,39);fill-rule:nonzero;"/>
        <path d="M613.658,285.275L617.26,275.323L620.921,266.419L625.971,257.848L614.133,257.982L602.338,258.18L606.369,266.92L610.119,275.534L613.658,285.275Z" style="fill:rgb(236,30,39);fill-rule:nonzero;"/>
        <path d="M482.834,284.842L486.071,275.719L490.544,267.189L494.904,258.655L483.335,259.203L471.839,259.03L475.916,267.34L479.696,275.946L482.834,284.842Z" style="fill:rgb(32,119,59);fill-rule:nonzero;"/>
        <path d="M438.403,284.371L441.55,276.248L446.595,267.985L450.533,259.177L438.907,259.969L427.979,260.116L431.795,267.774L434.098,277.028L438.403,284.371Z" style="fill:rgb(236,30,39);fill-rule:nonzero;"/>
        <path d="M393.983,285.666L398.443,277.431L401.271,268.14L406.371,259.514L394.475,259.728L383.13,260.297L386.214,268.847L391.067,276.985L393.983,285.666Z" style="fill:rgb(32,119,59);fill-rule:nonzero;"/>
        <path d="M349.563,286.993L353.611,277.81L357.835,269.166L361.307,260.65L350.055,260.953L338.058,260.288L342.935,268.931L346.731,277.524L349.563,286.993Z" style="fill:rgb(236,30,39);fill-rule:nonzero;"/>
        <path d="M305.13,287.148L308.463,278.058L312.797,269.457L317.712,260.49L305.631,261.947L293.403,260.659L298.052,269.697L300.531,278.85L305.13,287.148Z" style="fill:rgb(32,119,59);fill-rule:nonzero;"/>
        <path d="M260.698,286.958L265.17,279.149L269.618,270.61L273.221,261.113L261.19,261.4L249.601,261.79L252.5,270.748L257.167,278.967L260.698,286.958Z" style="fill:rgb(236,30,39);fill-rule:nonzero;"/>
        <path d="M216.274,287.56L220.081,279.414L224.114,270.682L228.477,261.967L216.774,262.631L204.962,262.177L208.527,271.123L212.183,279.78L216.274,287.56Z" style="fill:rgb(32,119,59);fill-rule:nonzero;"/>
        <path d="M171.841,288.132L175.488,279.91L180.11,271.444L184.688,261.975L172.355,263.823L161.293,263.422L163.744,271.847L168.06,280.221L171.841,288.132Z" style="fill:rgb(32,119,59);fill-rule:nonzero;"/>
        <path d="M127.43,290L131.498,280.684L135.307,271.843L139.586,263.137L127.928,264.307L117.033,264.151L120.768,271.797L122.978,281.059L127.43,290Z" style="fill:rgb(32,119,59);fill-rule:nonzero;"/>
        <path d="M52.674,96.584C52.674,96.584 21.966,73.856 12.596,111.248C3.143,149.002 -17.339,247.037 30.104,281.307C30.104,281.307 82.153,315.498 106.562,227.453C106.562,227.453 110.248,211.42 101.034,222.782C101.034,222.782 76.932,257.174 45.762,249.502C45.762,249.502 13.059,242.602 18.126,170.741C18.126,170.741 22.578,110.706 41.77,111.774C41.77,111.774 62.651,113.47 53.791,143.562C53.791,143.562 41.154,176.266 44.684,148.472C44.684,148.472 46.84,132.502 40.696,132.09C40.696,132.09 34.556,130.963 31.486,142.661C31.486,142.661 23.806,180.559 32.864,196.524C32.864,196.524 39.467,211.576 50.828,191.449C50.828,191.449 95.507,125.135 52.674,96.584Z" style="fill:rgb(236,30,39);fill-rule:nonzero;"/>
        <path d="M44.38,88.29C44.38,88.29 27.569,83.913 27.108,72.628C27.108,72.628 29.641,76.309 33.327,74.702L34.71,67.788L38.162,69.173C38.162,69.173 60.964,12.52 92.973,16.896C92.973,16.896 55.894,42.687 61.422,82.992L67.179,85.753L63.955,89.741C63.955,89.741 69.256,96.121 72.017,94.505C72.017,94.505 66.72,102.167 58.197,94.774C49.679,87.364 49.217,89.741 49.217,89.741C49.217,89.741 56.127,38.08 81.225,22.885C81.225,22.885 58.274,28.157 44.38,88.29Z" style="fill:rgb(32,119,59);fill-rule:nonzero;"/>
        <path d="M142.52,237.527C141.616,237.527 140.94,237.153 140.49,236.399C140.039,235.65 139.7,234.804 139.475,233.866C139.25,232.923 139.117,232.056 139.081,231.274C139.041,230.483 139.025,230.011 139.025,229.86L139.025,190.288C138.423,190.368 137.86,190.498 137.333,190.683C136.805,190.873 136.241,191.079 135.642,191.301C135.265,191.457 134.948,191.567 134.684,191.643C134.421,191.718 133.876,191.76 133.049,191.76C132.298,191.76 131.808,191.491 131.583,190.969C131.358,190.439 131.095,189.841 130.794,189.165L130.794,188.823L130.794,189.05C130.571,188.15 130.457,187.173 130.457,186.118L130.457,183.975C130.457,182.247 130.851,180.84 131.64,179.75C132.429,178.661 133.443,177.76 134.684,177.045C135.923,176.33 137.315,175.77 138.854,175.349C140.395,174.937 141.918,174.549 143.42,174.17C144.098,174.019 144.735,173.851 145.337,173.662C145.939,173.472 146.538,173.308 147.14,173.153L147.14,173.266C147.215,173.19 147.327,173.153 147.481,173.153C147.703,173.153 147.856,173.119 147.931,173.043C150.184,172.366 152.101,171.839 153.681,171.461C155.259,171.086 157.025,170.897 158.979,170.897C159.806,170.897 160.502,171.183 161.067,171.743C161.628,172.307 162.078,173.005 162.419,173.831C162.756,174.659 162.998,175.522 163.152,176.422C163.299,177.327 163.376,178.114 163.376,178.791L163.376,179.355C163.376,179.734 163.338,179.957 163.263,180.028L162.587,182.284L152.665,186.681C152.063,191.643 151.707,196.621 151.594,201.62C151.483,206.623 151.348,211.635 151.2,216.676C151.125,219.6 151.049,222.555 150.973,225.521C150.9,228.493 150.784,231.409 150.637,234.257C149.961,235.911 149.094,236.74 148.044,236.74C147.215,236.74 146.427,237.005 145.678,237.527L142.52,237.527Z" style="fill:rgb(32,119,59);fill-rule:nonzero;"/>
        <path d="M179.609,210.019L177.128,195.248C176.375,198.035 175.699,200.85 175.098,203.707C174.496,206.564 174.159,209.308 174.084,211.938L179.836,211.938C179.76,211.715 179.723,211.336 179.723,210.81C179.723,210.356 179.681,210.099 179.609,210.019ZM158.302,234.257L158.076,228.509L158.076,225.803C158.076,225.727 158.151,225.471 158.302,225.012L158.188,225.125C158.188,225.05 158.207,224.996 158.247,224.961C158.282,224.919 158.302,224.861 158.302,224.79C159.806,216.596 161.213,209.215 162.531,202.638C163.844,196.061 164.912,190.969 165.743,187.359C166.04,186.08 166.286,185.032 166.474,184.203C166.663,183.373 166.793,182.776 166.871,182.397C167.17,180.668 167.866,179.014 168.954,177.436C170.044,175.858 171.305,174.449 172.731,173.211C174.159,171.97 175.664,170.994 177.242,170.278C178.818,169.567 180.286,169.209 181.642,169.209L182.765,169.209C183.366,169.209 183.783,169.248 184.006,169.323C184.23,169.323 184.646,169.357 185.247,169.432L187.049,171.124C187.276,175.635 187.743,179.995 188.458,184.203C189.169,188.415 189.944,192.657 190.769,196.94C191.669,202.201 192.515,207.41 193.306,212.556C194.097,217.703 194.489,222.988 194.489,228.395L194.489,234.143C193.437,235.575 192.372,236.42 191.278,236.681C190.188,236.946 189.229,237.081 188.408,237.081L186.485,237.081C185.736,236.025 185.172,234.956 184.797,233.866C184.418,232.776 184.12,231.741 183.893,230.764C183.514,229.262 183.064,227.945 182.537,226.817C182.016,225.69 180.888,225.125 179.158,225.125C177.879,225.125 176.716,225.202 175.664,225.349C174.61,225.504 173.33,225.727 171.83,226.031C171.679,226.556 171.53,227.159 171.38,227.832C171.227,228.509 171.115,229.035 171.041,229.414L171.041,230.651C170.966,231.101 170.833,231.665 170.646,232.338C170.458,233.02 170.25,233.656 170.028,234.257C169.8,234.863 169.594,235.422 169.407,235.949C169.219,236.479 169.084,236.816 169.011,236.967L169.239,236.967C168.184,237.489 166.871,237.754 165.291,237.754C164.313,237.754 162.851,237.456 160.894,236.854L158.302,234.257Z" style="fill:rgb(32,119,59);fill-rule:nonzero;"/>
        <path d="M211.291,206.186C211.514,205.811 211.817,205.55 212.192,205.399C212.263,205.323 212.49,205.192 212.869,205.007C213.24,204.814 213.694,204.608 214.22,204.384C214.746,204.162 215.255,203.93 215.743,203.707C216.232,203.48 216.589,203.329 216.812,203.256C216.963,203.256 217.245,203.294 217.657,203.371C218.071,203.446 218.508,203.665 218.958,204.043L222,209.232C222.153,207.881 222.24,206.581 222.282,205.344C222.321,204.098 222.371,202.954 222.45,201.902L222.45,199.537C222.45,198.636 222.413,197.373 222.341,195.758C222.262,194.142 222.055,192.526 221.719,190.911C221.382,189.294 220.885,187.885 220.25,186.681C219.611,185.478 218.689,184.88 217.49,184.88C216.063,184.88 214.918,185.629 214.052,187.135C213.189,188.638 212.512,190.498 212.024,192.715C211.535,194.933 211.195,197.239 211.009,199.646C210.824,202.053 210.723,204.162 210.723,205.962L210.723,207.313C210.874,206.939 211.064,206.564 211.291,206.186ZM217.039,221.747L215.916,219.381L210.954,211.147C210.799,210.995 210.69,210.81 210.614,210.587L210.614,215.995L210.723,217.573L210.836,217.799C211.363,219.301 211.851,220.409 212.305,221.128C212.755,221.843 213.66,222.197 215.011,222.197C215.836,222.197 216.513,222.045 217.039,221.747ZM198.099,205.117C198.25,202.221 198.553,199.234 198.999,196.154C199.449,193.073 200.106,190.065 200.977,187.135C201.84,184.203 203.001,181.577 204.47,179.242C205.934,176.911 207.756,175.038 209.936,173.603C212.112,172.18 214.746,171.461 217.83,171.461C221.437,171.461 224.332,172.497 226.507,174.562C228.687,176.632 230.341,179.165 231.469,182.174C232.596,185.183 233.332,188.373 233.669,191.76C234.002,195.135 234.174,198.144 234.174,200.774C234.174,204.384 233.951,208.256 233.501,212.383C233.047,216.525 232.071,220.387 230.569,223.998L234.742,231.101L234.624,230.992C235.231,232.043 235.53,232.831 235.53,233.357C235.53,234.181 235.324,234.897 234.907,235.502C234.494,236.1 233.985,236.665 233.383,237.19C233.084,237.417 232.639,237.678 232.032,237.981L232.142,237.864L228.763,239.336C228.687,239.256 228.46,239.05 228.09,238.713C227.711,238.373 227.261,237.96 226.735,237.472C226.204,236.989 225.834,236.626 225.607,236.399L224.929,235.839L223.352,233.133C221.172,234.56 218.428,235.271 215.124,235.271C212.339,235.271 209.881,234.582 207.736,233.184C205.594,231.795 203.792,230.011 202.328,227.832C200.86,225.656 199.753,223.232 198.999,220.56C198.25,217.897 197.876,215.279 197.876,212.725C197.876,210.545 197.951,208.007 198.099,205.117Z" style="fill:rgb(32,119,59);fill-rule:nonzero;"/>
        <path d="M237.449,207.09L238.912,175.976L239.927,172.816C241.576,172.366 243.192,172.143 244.775,172.143C246.273,172.143 247.888,172.366 249.622,172.816L251.086,175.858C250.86,181.577 250.653,187.754 250.468,194.403C250.275,201.056 250.144,207.469 250.073,213.629L250.073,218.136C250.073,218.965 250.11,219.756 250.186,220.509C250.257,221.254 250.481,222.083 250.86,222.988L251.086,222.988C252.063,222.988 252.85,222.685 253.451,222.083C254.057,221.486 254.487,220.749 254.751,219.882C255.012,219.024 255.185,218.082 255.256,217.063C255.332,216.053 255.37,215.131 255.37,214.303L255.37,172.366L256.948,170.56L265.516,170.56L266.87,174.957L266.87,175.858C266.87,176.464 266.888,177.306 266.925,178.396C266.963,179.49 266.98,180.71 266.98,182.061C266.98,185.217 266.997,188.133 267.043,190.796C267.076,193.469 267.131,196.04 267.203,198.518C267.283,199.873 267.325,201.19 267.325,202.465L267.325,213.066C267.325,217.122 267.245,220.804 267.094,224.112C266.947,227.423 266.492,230.541 265.742,233.47C264.615,234.143 263.222,234.733 261.573,235.216C259.914,235.709 258.228,236.083 256.497,236.344C254.769,236.61 253.098,236.816 251.478,236.967C249.862,237.115 248.494,237.19 247.366,237.19C245.111,237.19 243.326,236.399 242.01,234.821C240.693,233.248 239.699,231.256 239.022,228.846C238.344,226.447 237.915,223.851 237.726,221.069C237.536,218.288 237.449,215.696 237.449,213.292L237.449,207.09Z" style="fill:rgb(32,119,59);fill-rule:nonzero;"/>
        <path d="M272.055,175.858C272.131,174.356 272.691,173.249 273.746,172.534C274.794,171.823 275.813,171.461 276.789,171.461C277.012,171.461 277.353,171.482 277.807,171.52C278.253,171.557 278.738,171.633 279.268,171.743C279.793,171.856 280.303,171.97 280.791,172.083C281.279,172.198 281.637,172.293 281.86,172.366L281.75,172.252C282.053,172.404 282.541,172.816 283.215,173.494C283.892,174.17 284.229,174.659 284.229,174.957L284.229,232.792C284.229,233.622 284.039,234.316 283.669,234.884C283.29,235.444 282.802,235.89 282.197,236.231C281.595,236.572 280.959,236.794 280.281,236.909C279.604,237.018 278.969,237.081 278.367,237.081C278.22,237.081 278.069,237.06 277.916,237.018C277.761,236.989 277.614,236.967 277.467,236.967L277.012,236.967C274.761,236.74 273.367,236.1 272.846,235.048C272.316,233.997 272.055,232.902 272.055,231.779L272.055,175.858Z" style="fill:rgb(32,119,59);fill-rule:nonzero;"/>
        <path d="M301.028,237.981C300.421,237.981 299.748,237.7 298.994,237.131C298.245,236.572 297.867,236.138 297.867,235.839L297.867,183.635L290.651,183.635C290.276,183.635 289.88,183.264 289.472,182.511C289.055,181.762 288.736,181.118 288.513,180.596L288.513,179.805C288.513,177.403 288.811,175.467 289.413,174.002C290.011,172.534 291.517,171.389 293.924,170.56C294.446,170.485 295.46,170.375 296.966,170.223C298.469,170.077 300.042,169.942 301.7,169.829C303.359,169.719 304.932,169.618 306.439,169.546C307.941,169.475 308.989,169.432 309.59,169.432L313.424,169.887L313.315,169.887C315.494,169.887 316.98,170.354 317.767,171.297C318.558,172.231 318.949,173.758 318.949,175.858L318.949,176.422C318.949,176.801 318.932,177.385 318.895,178.172C318.861,178.959 318.688,179.54 318.385,179.918C318.162,180.142 317.712,180.499 317.031,180.992C316.357,181.48 315.945,181.762 315.793,181.838L315.343,181.948C312.263,183.454 310.723,183.862 310.723,183.189L310.723,234.034C309.216,235.688 307.567,236.756 305.761,237.245C303.956,237.733 302.378,237.981 301.028,237.981Z" style="fill:rgb(32,119,59);fill-rule:nonzero;"/>
        <path d="M328.871,215.885C328.871,216.862 328.926,217.837 329.04,218.814C329.15,219.79 329.343,220.673 329.608,221.465C329.869,222.251 330.205,222.891 330.622,223.379C331.031,223.868 331.539,224.112 332.141,224.112C333.269,224.112 334.187,223.266 334.902,221.575C335.617,219.882 336.202,217.837 336.648,215.43C337.103,213.028 337.402,210.486 337.557,207.823C337.7,205.155 337.776,202.844 337.776,200.887L337.776,193.785C337.776,190.632 337.536,188.373 337.048,187.022C336.56,185.671 335.672,184.99 334.397,184.99C333.568,184.99 332.815,185.965 332.141,187.926C331.468,189.879 330.879,192.168 330.395,194.803C329.903,197.433 329.528,200.063 329.267,202.688C329.002,205.323 328.871,207.351 328.871,208.778L328.871,215.885ZM316.134,210.469L316.134,209.346C316.134,207.692 316.26,205.605 316.526,203.088C316.79,200.568 317.182,197.883 317.712,195.026C318.234,192.168 318.932,189.311 319.795,186.458C320.657,183.601 321.709,181.026 322.951,178.737C324.188,176.443 325.64,174.579 327.293,173.153C328.944,171.726 330.828,171.015 332.932,171.015C336.084,171.015 338.794,171.894 341.045,173.662C343.301,175.424 345.14,177.625 346.571,180.255C347.997,182.89 349.071,185.743 349.785,188.823C350.501,191.908 350.892,194.803 350.968,197.504L350.968,198.969C350.968,201.001 350.817,203.349 350.518,206.017C350.215,208.689 349.765,211.45 349.167,214.303C348.561,217.165 347.77,219.979 346.798,222.756C345.822,225.542 344.673,228.041 343.36,230.259C342.038,232.477 340.54,234.257 338.849,235.612C337.157,236.967 335.259,237.64 333.156,237.64C329.17,237.64 326.069,236.816 323.856,235.162C321.634,233.508 319.967,231.366 318.84,228.732C317.712,226.102 316.996,223.173 316.694,219.942C316.391,216.709 316.205,213.553 316.134,210.469Z" style="fill:rgb(32,119,59);fill-rule:nonzero;"/>
        <path d="M382.196,230.764C382.196,230.689 382.217,230.423 382.254,229.973C382.292,229.523 382.347,229.014 382.423,228.45C382.498,227.886 382.591,227.327 382.705,226.758C382.815,226.199 382.945,225.727 383.101,225.349L382.987,225.581L382.987,173.043L385.133,170.674L406.321,170.674C406.775,171.502 407.073,172.307 407.225,173.098C407.372,173.889 407.448,174.806 407.448,175.858C407.448,176.834 407.372,177.832 407.225,178.846C407.073,179.864 406.851,180.975 406.552,182.174L395.392,182.174L395.392,205.057L404.742,205.057C405.798,205.057 406.417,205.625 406.602,206.753C406.796,207.881 406.889,208.891 406.889,209.795L406.889,211.483C406.889,212.014 406.851,212.59 406.775,213.23C406.699,213.87 406.565,214.471 406.379,215.04C406.194,215.599 405.963,216.07 405.701,216.445C405.441,216.823 405.121,217.008 404.742,217.008L395.392,217.008L395.392,225.24C395.392,225.167 395.653,225.125 396.175,225.125C396.857,225.125 397.307,225.167 397.526,225.24L397.416,225.24L405.083,225.581C406.211,226.707 406.775,228.21 406.775,230.086C406.775,231.665 406.363,233.171 405.533,234.598L404.406,235.839L404.633,235.162C404.477,235.309 403.859,235.482 402.769,235.666C401.683,235.86 400.442,236.045 399.053,236.231C397.66,236.42 396.234,236.61 394.77,236.794C393.305,236.989 392.118,237.115 391.218,237.19L388.394,237.19C386.669,237.19 385.204,236.572 384.001,235.331C382.797,234.093 382.196,232.565 382.196,230.764Z" style="fill:rgb(32,119,59);fill-rule:nonzero;"/>
        <path d="M439.803,190.346C438.154,194.516 436.163,198.855 433.832,203.371L436.311,208.332L442.623,226.59C442.997,227.044 443.229,227.756 443.3,228.732C443.3,228.812 443.322,228.867 443.36,228.905C443.397,228.938 443.414,229.001 443.414,229.073C443.486,229.22 443.528,229.49 443.528,229.86C443.528,230.31 443.566,230.575 443.637,230.651C443.637,231.551 443.431,232.435 443.019,233.297C442.611,234.165 441.685,234.863 440.258,235.38L440.371,235.38C440.291,235.46 440.14,235.537 439.917,235.612L439.467,235.949L438.903,236.29C438.23,236.441 437.792,236.53 437.607,236.572C437.417,236.61 437.098,236.702 436.652,236.854C434.842,236.854 433.568,236.172 432.819,234.821L427.066,220.387L421.545,234.375C420.867,236.025 419.588,236.854 417.711,236.854L417.143,236.854C416.47,236.854 415.734,236.647 414.947,236.231C414.159,235.819 413.461,235.309 412.864,234.711C412.258,234.11 411.753,233.412 411.336,232.624C410.924,231.837 410.718,231.03 410.718,230.201L410.718,229.973C410.718,228.172 411.358,225.071 412.632,220.673C413.911,216.276 416.428,210.436 420.19,203.143L410.158,177.664C410.158,177.285 410.403,176.632 410.89,175.69C411.378,174.751 411.737,174.17 411.963,173.94C412.258,173.645 412.67,173.342 413.2,173.043C413.727,172.74 414.172,172.475 414.551,172.252C414.854,172.18 415.081,172.067 415.229,171.915C416.583,171.389 417.485,171.124 417.935,171.124C419.588,171.124 420.825,171.915 421.658,173.494L427.066,186.799L432.478,173.494C433.227,171.915 434.434,171.124 436.083,171.124C436.761,171.124 437.661,171.347 438.793,171.806C439.088,171.954 439.522,172.273 440.085,172.761C440.65,173.249 441.213,173.776 441.778,174.339C442.341,174.903 442.85,175.488 443.3,176.085C443.75,176.687 444.049,177.175 444.205,177.549C442.922,181.91 441.461,186.18 439.803,190.346Z" style="fill:rgb(32,119,59);fill-rule:nonzero;"/>
        <path d="M468.212,195.026C468.212,194.201 468.103,193.262 467.879,192.207C467.648,191.155 467.328,190.145 466.916,189.165C466.503,188.184 465.96,187.342 465.283,186.626C464.606,185.911 463.815,185.478 462.918,185.331L462.918,208.332C463.739,207.953 464.496,207.204 465.169,206.072C465.843,204.944 466.406,203.707 466.862,202.352C467.312,201.001 467.648,199.646 467.879,198.295C468.103,196.94 468.212,195.855 468.212,195.026ZM480.953,194.348C480.953,196.002 480.445,198.279 479.43,201.174C478.42,204.065 477.061,206.959 475.374,209.85C473.682,212.742 471.713,215.355 469.453,217.682C467.198,220.017 464.833,221.486 462.35,222.083L462.35,235.38L461.563,234.711C461.71,235.162 461.617,235.801 461.281,236.626C460.945,237.456 460.393,238.015 459.645,238.318C458.971,238.697 458.407,238.919 457.957,238.991C457.502,239.067 457.01,239.105 456.489,239.105L453.892,238.768C452.02,237.939 450.908,237.06 450.568,236.122C450.231,235.178 450.059,234.072 450.059,232.792L450.059,227.495C450.059,226.964 450.101,226.632 450.172,226.477L450.172,195.248C450.172,193.675 450.156,191.983 450.121,190.178C450.079,188.373 450.046,186.963 450.004,185.949C449.966,184.935 449.949,184.35 449.949,184.203L447.129,182.624C446.376,180.445 446.006,178.303 446.006,176.195C446.082,174.773 446.456,173.452 447.129,172.252C447.807,171.053 449.006,170.451 450.74,170.451C454.043,170.451 457.482,170.897 461.054,171.806C464.626,172.702 467.879,174.112 470.804,176.031C473.737,177.946 476.165,180.407 478.079,183.415C479.998,186.42 480.953,190.065 480.953,194.348Z" style="fill:rgb(32,119,59);fill-rule:nonzero;"/>
        <path d="M502.941,190.969C502.941,189.766 502.578,188.545 501.867,187.308C501.153,186.063 500.382,185.407 499.553,185.331L499.553,185.444L499.444,185.444L498.99,186.008C498.539,187.96 498.316,190.632 498.316,194.012L498.316,196.154C498.316,197.504 498.333,198.842 498.366,200.155C498.405,201.468 498.467,202.844 498.539,204.271C499.819,202.844 500.866,201.001 501.699,198.746C502.52,196.491 502.941,194.576 502.941,192.998L502.941,190.969ZM503.5,235.271C503.121,234.821 502.432,233.824 501.413,232.284C500.399,230.748 499.444,229.22 498.539,227.718L498.539,235.839C498.467,236.29 498.182,236.647 497.698,236.909C497.201,237.173 496.637,237.375 496.001,237.527C495.362,237.678 494.685,237.788 493.973,237.864C493.258,237.939 492.602,237.981 492,237.981L488.731,237.981C488.503,237.981 488.204,237.939 487.829,237.864L486.475,233.47C486.247,227.31 486.063,221.238 485.91,215.262C485.759,209.287 485.688,203.219 485.688,197.054C485.688,192.766 485.739,188.524 485.856,184.317C485.97,180.108 486.214,175.597 486.588,170.788C487.864,170.636 489.033,170.527 490.081,170.451C491.137,170.375 492.185,170.337 493.241,170.337C496.094,170.337 498.855,170.695 501.527,171.407C504.195,172.122 506.58,173.249 508.685,174.79C510.788,176.33 512.463,178.282 513.7,180.651C514.947,183.016 515.565,185.894 515.565,189.278C515.565,192.959 514.976,196.36 513.818,199.478C512.649,202.6 511.205,205.735 509.476,208.891C509.547,208.82 509.476,208.95 509.248,209.287C509.026,209.623 508.798,209.985 508.571,210.356L508.571,210.247C508.197,210.995 507.746,211.765 507.22,212.556C506.69,213.343 506.429,213.928 506.429,214.303C506.354,214.378 506.32,214.639 506.32,215.094C506.32,216.373 506.753,217.669 507.612,218.982C508.479,220.299 509.438,221.595 510.49,222.871C511.614,224.225 512.611,225.597 513.478,226.986C514.34,228.378 514.774,229.822 514.774,231.329C514.774,232.078 514.606,232.902 514.263,233.807C513.927,234.711 513.478,235.553 512.913,236.344C512.354,237.131 511.672,237.788 510.881,238.318C510.094,238.844 509.286,239.105 508.457,239.105C507.329,239.105 506.489,238.844 505.92,238.318C505.361,237.788 504.78,237.081 504.178,236.172C504.027,236.025 503.912,235.873 503.837,235.726C503.761,235.575 503.648,235.422 503.5,235.271Z" style="fill:rgb(32,119,59);fill-rule:nonzero;"/>
        <path d="M518.83,231.665L518.83,173.603C518.83,173.308 518.94,173.005 519.171,172.702C519.399,172.404 519.62,172.143 519.849,171.915L519.735,172.025C519.807,171.954 519.904,171.877 520.017,171.806C520.13,171.726 520.219,171.655 520.294,171.579C520.749,171.427 521.443,171.183 522.386,170.842C523.323,170.505 523.867,170.337 524.018,170.337L543.409,170.337C543.409,170.485 543.367,170.674 543.295,170.897C543.67,171.053 544.049,171.297 544.428,171.633C544.798,171.97 544.988,172.513 544.988,173.266C544.988,174.469 544.853,175.69 544.592,176.927C544.326,178.172 544.007,179.355 543.637,180.483C543.409,181.307 542.808,181.838 541.831,182.061C540.851,182.284 539.912,182.397 539.012,182.397L531.345,182.511C531.189,183.563 531.063,185.048 530.949,186.963C530.836,188.882 530.726,190.838 530.613,192.829C530.499,194.82 530.406,196.659 530.33,198.35C530.255,200.045 530.217,201.224 530.217,201.902L530.217,204.162L542.618,204.162C542.77,204.907 542.879,205.676 542.954,206.471C543.031,207.258 543.073,208.029 543.073,208.778C543.073,210.436 542.954,211.862 542.728,213.066C542.656,213.89 542.34,214.551 541.773,215.04C541.213,215.528 540.514,215.922 539.69,216.217C538.861,216.525 537.96,216.748 536.988,216.899C536.003,217.046 535.027,217.194 534.051,217.345C533.226,217.5 532.473,217.593 531.799,217.631C531.117,217.669 530.592,217.762 530.217,217.914L530.217,218.136C530.445,218.59 530.558,219.079 530.558,219.6C530.558,219.904 530.571,220.186 530.613,220.447C530.651,220.715 530.705,221.027 530.781,221.406C530.857,222.306 530.97,223.097 531.117,223.771L531.686,223.771L543.523,222.424C543.746,223.623 543.935,224.637 544.082,225.471C544.234,226.295 544.314,227.044 544.314,227.718C544.314,228.623 544.255,229.464 544.141,230.259C544.028,231.046 543.898,231.854 543.746,232.679L543.746,232.456C543.746,233.053 543.258,233.622 542.281,234.143C541.305,234.674 540.064,235.141 538.562,235.553C537.059,235.969 535.402,236.344 533.6,236.681C531.799,237.018 530.108,237.287 528.526,237.472C526.948,237.657 525.58,237.809 524.41,237.926C523.248,238.036 522.516,238.09 522.213,238.09L521.422,238.09C521.347,238.09 521.177,238.07 520.917,238.036C520.653,237.998 520.336,237.939 519.958,237.864L518.83,231.665Z" style="fill:rgb(32,119,59);fill-rule:nonzero;"/>
        <path d="M566.742,238.655C564.942,238.655 562.926,238.108 560.713,237.018C558.495,235.932 556.429,234.54 554.51,232.847C552.595,231.161 550.98,229.262 549.662,227.159C548.35,225.05 547.656,222.946 547.579,220.842C547.504,220.695 547.47,220.358 547.47,219.828C547.47,219.151 547.689,218.494 548.143,217.854C548.598,217.219 549.174,216.655 549.89,216.166C550.605,215.678 551.375,215.262 552.204,214.925C553.029,214.584 553.854,214.42 554.683,214.42C555.28,214.42 555.658,214.454 555.811,214.53L556.033,214.53C556.786,214.53 557.346,214.829 557.725,215.43C558.1,216.037 558.474,216.786 558.853,217.682C559.152,218.364 559.531,219.096 559.981,219.882C560.426,220.673 560.978,221.385 561.617,222.024C562.257,222.665 563.027,223.211 563.928,223.662C564.828,224.112 565.918,224.338 567.198,224.338L568.998,223.662C569.827,223.059 570.298,222.348 570.407,221.515C570.522,220.695 570.58,219.79 570.58,218.814C570.58,217.084 569.84,215.754 568.379,214.812C566.915,213.87 565.131,212.952 563.027,212.051C561.293,211.302 559.531,210.457 557.725,209.51C555.924,208.571 554.266,207.334 552.764,205.79C551.261,204.254 550.016,202.301 549.043,199.928C548.068,197.563 547.579,194.576 547.579,190.969C547.579,188.184 548.106,185.498 549.157,182.907C550.209,180.31 551.598,178.038 553.331,176.085C555.057,174.133 557.052,172.572 559.303,171.407C561.554,170.245 563.89,169.66 566.297,169.66C568.623,169.66 570.631,170.278 572.323,171.52C574.014,172.761 575.424,174.339 576.552,176.258C577.679,178.172 578.526,180.255 579.093,182.511C579.653,184.762 579.935,186.946 579.935,189.05L579.935,189.723C579.864,190.33 579.783,191.079 579.712,191.983C579.632,192.888 579.295,193.713 578.694,194.461C577.271,195.442 575.84,195.93 574.414,195.93C572.68,195.93 571.443,195.551 570.69,194.803C569.487,194.651 568.813,194.012 568.661,192.888C568.506,191.76 568.397,190.481 568.324,189.05C568.245,187.776 568.115,186.588 567.925,185.498C567.736,184.409 567.155,183.862 566.179,183.862C564.227,183.862 562.703,184.582 561.617,186.008C560.528,187.439 559.981,189.126 559.981,191.079L559.981,192.998C559.981,193.675 560.17,194.087 560.548,194.239C564.828,197.618 569.452,200.404 574.414,202.579C575.765,203.256 576.968,204.195 578.016,205.399C579.073,206.602 579.955,207.932 580.671,209.396C581.378,210.865 581.925,212.405 582.3,214.021C582.678,215.637 582.864,217.165 582.864,218.59C582.864,221.444 582.569,224.094 581.967,226.536C581.362,228.98 580.402,231.101 579.093,232.902C577.772,234.711 576.102,236.122 574.073,237.131C572.045,238.145 569.6,238.655 566.742,238.655Z" style="fill:rgb(32,119,59);fill-rule:nonzero;"/>
        <path d="M605.305,238.655C603.5,238.655 601.485,238.108 599.275,237.018C597.053,235.932 594.987,234.54 593.069,232.847C591.149,231.161 589.537,229.262 588.225,227.159C586.907,225.05 586.209,222.946 586.137,220.842C586.062,220.695 586.028,220.358 586.028,219.828C586.028,219.151 586.251,218.494 586.698,217.854C587.156,217.219 587.737,216.655 588.448,216.166C589.167,215.678 589.933,215.262 590.762,214.925C591.587,214.584 592.411,214.42 593.24,214.42C593.842,214.42 594.217,214.454 594.368,214.53L594.596,214.53C595.345,214.53 595.905,214.829 596.283,215.43C596.661,216.037 597.031,216.786 597.41,217.682C597.709,218.364 598.088,219.096 598.538,219.882C598.989,220.673 599.535,221.385 600.175,222.024C600.811,222.665 601.581,223.211 602.486,223.662C603.391,224.112 604.476,224.338 605.755,224.338L607.561,223.662C608.381,223.059 608.857,222.348 608.97,221.515C609.079,220.695 609.134,219.79 609.134,218.814C609.134,217.084 608.403,215.754 606.938,214.812C605.473,213.87 603.685,212.952 601.581,212.051C599.856,211.302 598.088,210.457 596.283,209.51C594.482,208.571 592.828,207.334 591.322,205.79C589.82,204.254 588.578,202.301 587.606,199.928C586.625,197.563 586.137,194.576 586.137,190.969C586.137,188.184 586.663,185.498 587.715,182.907C588.768,180.31 590.156,178.038 591.89,176.085C593.619,174.133 595.606,172.572 597.861,171.407C600.116,170.245 602.444,169.66 604.855,169.66C607.182,169.66 609.194,170.278 610.885,171.52C612.576,172.761 613.982,174.339 615.11,176.258C616.238,178.172 617.083,180.255 617.652,182.511C618.211,184.762 618.492,186.946 618.492,189.05L618.492,189.723C618.417,190.33 618.341,191.079 618.27,191.983C618.194,192.888 617.854,193.713 617.256,194.461C615.825,195.442 614.399,195.93 612.968,195.93C611.239,195.93 609.997,195.551 609.248,194.803C608.049,194.651 607.371,194.012 607.22,192.888C607.069,191.76 606.954,190.481 606.883,189.05C606.803,187.776 606.672,186.588 606.488,185.498C606.298,184.409 605.717,183.862 604.741,183.862C602.784,183.862 601.265,184.582 600.175,186.008C599.081,187.439 598.538,189.126 598.538,191.079L598.538,192.998C598.538,193.675 598.724,194.087 599.103,194.239C603.391,197.618 608.006,200.404 612.968,202.579C614.319,203.256 615.527,204.195 616.574,205.399C617.63,206.602 618.514,207.932 619.23,209.396C619.941,210.865 620.484,212.405 620.862,214.021C621.24,215.637 621.426,217.165 621.426,218.59C621.426,221.444 621.123,224.094 620.526,226.536C619.919,228.98 618.964,231.101 617.652,232.902C616.334,234.711 614.659,236.122 612.631,237.131C610.603,238.145 608.158,238.655 605.305,238.655Z" style="fill:rgb(32,119,59);fill-rule:nonzero;"/>
    </g>
</svg>
